<?xml version="1.0" encoding="utf-8"?>
<!-- Generator: Adobe Illustrator 25.2.0, SVG Export Plug-In . SVG Version: 6.00 Build 0)  -->
<svg version="1.1" id="Layer_1" xmlns="http://www.w3.org/2000/svg" xmlns:xlink="http://www.w3.org/1999/xlink" x="0px" y="0px"
	 viewBox="0 0 1080 1080" style="enable-background:new 0 0 1080 1080;" xml:space="preserve">
<style type="text/css">
	.st0{fill:#1A1A1A;}
	.st1{fill:#FB68C9;}
	.st2{fill:#F8CB92;}
	.st3{fill:#974EC7;}
</style>
<g>
	<g>
		<g>
			<path class="st0" d="M227.26,795.96h-21.82c-3.9-10.69-12.14-16.04-25-16.04c-8.67,0-15.75,3.18-21.24,9.54
				c-5.49,6.36-8.24,14.45-8.24,24.28c0,9.97,2.75,18.06,8.38,24.56c5.64,6.36,12.86,9.54,21.96,9.54
				c14.88,0,24.42-7.23,25.43-19.51h-24.13v-18.5h45.37v8.81c0,14.88-4.33,26.59-12.86,35.11c-8.53,8.38-19.8,12.57-33.81,12.57
				c-14.88,0-27.16-4.92-36.7-14.88c-9.54-9.97-14.3-22.54-14.3-37.71c0-15.17,4.77-27.6,14.16-37.43
				c9.54-9.97,21.67-14.88,36.41-14.88C205.73,761.43,221.63,774.72,227.26,795.96z"/>
			<path class="st0" d="M301.96,763.31l39.16,101.15h-21.53l-8.38-22.4h-40.31l-8.38,22.4h-21.53l39.16-101.15H301.96z
				 M290.98,787.44l-1.88,5.64l-11.99,31.65h27.74l-11.99-31.65L290.98,787.44z"/>
			<path class="st0" d="M468.99,763.31v101.15h-19.94v-64.01l-2.89,8.81l-22.97,55.2h-16.76l-22.97-55.2l-2.89-8.81v64.01h-19.8
				V763.31h22.83l28.9,65.17l2.17,5.93l2.31-5.93l29.04-65.17H468.99z"/>
			<path class="st0" d="M554.81,763.31v18.5h-38.44v21.39h33.23v18.64h-33.23v24.13h38.44v18.5h-58.23V763.31H554.81z"/>
			<path class="st0" d="M610.01,763.31c10.84,0,19.36,3.04,25.86,8.96c6.5,5.92,9.68,13.58,9.68,23.26c0,12.57-6.5,22.4-17.63,27.46
				l21.96,41.47H627.2l-19.65-37.86h-8.96v37.86h-19.8V763.31H610.01z M598.59,781.8v27.16h11.42c9.39,0,15.17-4.62,15.17-13.44
				c0-8.81-5.78-13.73-15.17-13.73H598.59z"/>
			<path class="st0" d="M728.05,763.31v18.5h-38.44v21.39h33.23v18.64h-33.23v24.13h38.44v18.5h-58.23V763.31H728.05z"/>
			<path class="st0" d="M841.33,763.31l-39.59,101.15h-18.78l-39.59-101.15h21.24l25.58,66.76l2.17,6.94l2.17-6.94l25.58-66.76
				H841.33z"/>
			<path class="st0" d="M949.69,763.31L910.1,864.45h-18.78l-39.59-101.15h21.24l25.58,66.76l2.17,6.94l2.17-6.94l25.58-66.76
				H949.69z"/>
		</g>
	</g>
	<g>
		<path class="st1" d="M769.96,440.77c0,9.26-4.78,17.53-12.79,22.16l-76.62,44.24c-7.09,4.09-15.83,4.09-22.92,0l-132.15-76.31
			V284.86l115.29,66.56c7.23,4.18,11.69,11.9,11.69,20.25l0,98.99c0,7.13,5.38,13.37,12.5,13.84c7.81,0.52,14.31-5.68,14.31-13.37
			v-97.47l77.9,44.97C765.18,423.25,769.96,431.53,769.96,440.77z"/>
		<path class="st2" d="M498.68,283.58v147.27l-128.85,74.4V373.22c0-7.35,3.88-14.16,10.21-17.89l88.4-52.19
			c6.4-3.71,8.59-11.91,4.89-18.31c-3.71-6.4-11.91-8.59-18.31-4.89l-85.19,50.45v-91.1c0-9.26,4.79-17.53,12.79-22.16
			c4.01-2.3,8.4-3.47,12.79-3.47c4.4,0,8.78,1.17,12.79,3.47l78.18,45.14C493.99,266.67,498.68,274.79,498.68,283.58z"/>
		<path class="st3" d="M396.79,550.82c-3.67,6.42-1.45,14.62,4.97,18.29l84.6,50.17l-78.17,45.13c-8.01,4.62-17.57,4.62-25.58,0
			c-7.99-4.62-12.79-12.9-12.79-22.14v-89.7c0-10.12,5.4-19.48,14.17-24.54l128.08-73.96l130.22,75.19L525.97,596.4
			c-7.87,4.54-17.58,4.5-25.4-0.12l-85.48-50.45C408.65,542.16,400.47,544.38,396.79,550.82z"/>
	</g>
</g>
</svg>
