<?xml version="1.0" encoding="utf-8"?>
<!-- Generator: Adobe Illustrator 25.2.0, SVG Export Plug-In . SVG Version: 6.00 Build 0)  -->
<svg version="1.1" id="Layer_1" xmlns="http://www.w3.org/2000/svg" xmlns:xlink="http://www.w3.org/1999/xlink" x="0px" y="0px"
	 viewBox="0 0 970.5 273.06" style="enable-background:new 0 0 970.5 273.06;" xml:space="preserve">
<style type="text/css">
	.st0{fill:#1A1A1A;}
	.st1{fill:#FB68C9;}
	.st2{fill:#F8CB92;}
	.st3{fill:#974EC7;}
</style>
<g>
	<g>
		<g>
			<path class="st0" d="M329.6,122.76h-17.77c-3.18-8.71-9.89-13.06-20.36-13.06c-7.06,0-12.83,2.59-17.3,7.77
				c-4.47,5.18-6.71,11.77-6.71,19.77c0,8.12,2.24,14.71,6.83,20c4.59,5.18,10.47,7.77,17.89,7.77c12.12,0,19.89-5.88,20.71-15.89
				h-19.65v-15.06h36.95v7.18c0,12.12-3.53,21.65-10.47,28.6c-6.94,6.83-16.12,10.24-27.54,10.24c-12.12,0-22.12-4-29.89-12.12
				c-7.77-8.12-11.65-18.36-11.65-30.71s3.88-22.48,11.53-30.48c7.77-8.12,17.65-12.12,29.65-12.12
				C312.07,94.64,325.01,105.46,329.6,122.76z"/>
			<path class="st0" d="M390.45,96.17l31.89,82.37h-17.53l-6.83-18.24h-32.83l-6.83,18.24h-17.53l31.89-82.37H390.45z
				 M381.51,115.82l-1.53,4.59l-9.77,25.77h22.59l-9.77-25.77L381.51,115.82z"/>
			<path class="st0" d="M526.49,96.17v82.37h-16.24v-52.13l-2.35,7.18l-18.71,44.95h-13.65l-18.71-44.95l-2.35-7.18v52.13h-16.12
				V96.17h18.59l23.54,53.07l1.76,4.82l1.88-4.82l23.65-53.07H526.49z"/>
			<path class="st0" d="M596.41,96.17v15.06h-31.3v17.42h27.06v15.18h-27.06v19.65h31.3v15.06h-47.43V96.17H596.41z"/>
			<path class="st0" d="M641.37,96.17c8.83,0,15.77,2.47,21.06,7.3s7.88,11.06,7.88,18.95c0,10.24-5.3,18.24-14.36,22.36
				l17.89,33.77h-18.48l-16-30.83h-7.3v30.83h-16.12V96.17H641.37z M632.07,111.23v22.12h9.3c7.65,0,12.36-3.77,12.36-10.94
				c0-7.18-4.71-11.18-12.36-11.18H632.07z"/>
			<path class="st0" d="M737.52,96.17v15.06h-31.3v17.42h27.06v15.18h-27.06v19.65h31.3v15.06h-47.43V96.17H737.52z"/>
			<path class="st0" d="M829.78,96.17l-32.24,82.37h-15.3L750,96.17h17.3l20.83,54.37l1.77,5.65l1.76-5.65l20.83-54.37H829.78z"/>
			<path class="st0" d="M918.05,96.17l-32.24,82.37h-15.3l-32.24-82.37h17.3l20.83,54.37l1.77,5.65l1.76-5.65l20.83-54.37H918.05z"
				/>
		</g>
	</g>
	<g>
		<path class="st1" d="M200.88,136.53c0,3.43-1.77,6.5-4.74,8.22l-28.42,16.41c-2.63,1.52-5.87,1.52-8.5,0l-49.02-28.31V78.7
			l42.77,24.69c2.68,1.55,4.34,4.41,4.34,7.51l0,36.72c0,2.65,1.99,4.96,4.64,5.13c2.9,0.19,5.31-2.11,5.31-4.96v-36.16l28.9,16.68
			C199.11,130.03,200.88,133.1,200.88,136.53z"/>
		<path class="st2" d="M100.24,78.22v54.63l-47.8,27.6v-48.98c0-2.73,1.44-5.25,3.79-6.64l32.79-19.36
			c2.37-1.37,3.19-4.42,1.81-6.79s-4.42-3.19-6.79-1.81l-31.6,18.71V61.79c0-3.43,1.78-6.5,4.74-8.22c1.49-0.85,3.12-1.29,4.74-1.29
			c1.63,0,3.26,0.43,4.74,1.29l29,16.74C98.5,71.95,100.24,74.96,100.24,78.22z"/>
		<path class="st3" d="M62.45,177.35c-1.36,2.38-0.54,5.42,1.84,6.79l31.38,18.61l-29,16.74c-2.97,1.71-6.52,1.71-9.49,0
			c-2.97-1.71-4.74-4.78-4.74-8.21V178c0-3.75,2-7.22,5.25-9.1l47.51-27.44l48.3,27.89l-43.15,24.91c-2.92,1.69-6.52,1.67-9.42-0.05
			l-31.71-18.71C66.85,174.14,63.81,174.97,62.45,177.35z"/>
	</g>
</g>
</svg>
