<?xml version="1.0" encoding="utf-8"?>
<!-- Generator: Adobe Illustrator 25.2.0, SVG Export Plug-In . SVG Version: 6.00 Build 0)  -->
<svg version="1.1" id="Layer_1" xmlns="http://www.w3.org/2000/svg" xmlns:xlink="http://www.w3.org/1999/xlink" x="0px" y="0px"
	 viewBox="0 0 576 512" style="enable-background:new 0 0 576 512;" xml:space="preserve">
<style type="text/css">
	.st0{fill:#FFFFFF;}
</style>
<path class="st0" d="M575.8,255.5c0,18-15,32.1-32,32.1h-32l0.7,160.1c0.1,35.5-28.6,64.3-64,64.3H128.1c-35.4,0-64-28.7-64-64
	V287.6H32c-18,0-32-14.1-32-32.1c0-9,3-17,10-24L266.4,8c7-7,15-8,22-8s15,2,21.1,7l255.3,224.5
	C572.8,238.5,576.9,246.5,575.8,255.5L575.8,255.5z M288,160c-35.3,0-64,28.7-64,64s28.7,64,64,64s64-28.7,64-64S323.3,160,288,160z
	 M256,320c-44.2,0-80,35.8-80,80c0,8.8,7.2,16,16,16h192c8.8,0,16-7.2,16-16c0-44.2-35.8-80-80-80H256z"/>
</svg>
