<?xml version="1.0" encoding="utf-8"?>
<!-- Generator: Adobe Illustrator 25.2.0, SVG Export Plug-In . SVG Version: 6.00 Build 0)  -->
<svg version="1.1" id="Layer_1" xmlns="http://www.w3.org/2000/svg" xmlns:xlink="http://www.w3.org/1999/xlink" x="0px" y="0px"
	 viewBox="0 0 512 512" style="enable-background:new 0 0 512 512;" xml:space="preserve">
<style type="text/css">
	.st0{fill:#FFFFFF;}
</style>
<path class="st0" d="M512,255.1c0,1.8-0.9,2.7-0.9,3.6c0.5,36.5-32.7,60.4-69.2,60.4H344c-26.5,0-48,22.4-48,48.9
	c0,3.4,0.4,6.7,1,9.9c2.2,10.2,6.5,19.2,10.9,29.9c6,13.8,12.1,27.5,12.1,42c0,31.9-21.6,60.7-53.4,62c-3.5,0.1-7.1,0.2-10.6,0.2
	C114.6,512,0,397.4,0,256S114.6,0,256,0s256,114.6,256,256V255.1z M96,255.1c-17.7,0-32,15.2-32,32c0,18.6,14.3,32,32,32
	c17.7,0,32-13.4,32-32C128,270.3,113.7,255.1,96,255.1z M128,191.1c17.7,0,32-13.4,32-32c0-16.8-14.3-32-32-32s-32,15.2-32,32
	C96,177.7,110.3,191.1,128,191.1z M256,63.1c-17.7,0-32,15.2-32,32c0,18.6,14.3,32,32,32s32-13.4,32-32
	C288,78.3,273.7,63.1,256,63.1z M384,191.1c17.7,0,32-13.4,32-32c0-16.8-14.3-32-32-32s-32,15.2-32,32
	C352,177.7,366.3,191.1,384,191.1z"/>
</svg>
