<?xml version="1.0" encoding="utf-8"?>
<!-- Generator: Adobe Illustrator 25.2.0, SVG Export Plug-In . SVG Version: 6.00 Build 0)  -->
<svg version="1.1" id="Layer_1" xmlns="http://www.w3.org/2000/svg" xmlns:xlink="http://www.w3.org/1999/xlink" x="0px" y="0px"
	 viewBox="0 0 512 512" style="enable-background:new 0 0 512 512;" xml:space="preserve">
<style type="text/css">
	.st0{fill:#FFFFFF;}
</style>
<path class="st0" d="M464,16c-17.7,0-32,14.3-32,32v74.1C392.1,66.5,327.4,32,256,32C161.5,32,78.6,92.3,49.6,182.2
	c-5.4,16.8,3.8,34.9,20.6,40.3c16.9,5.5,34.9-3.8,40.3-20.6C130.9,138.5,189.4,96,256,96c50.5,0,96.3,24.6,124.4,64H336
	c-17.7,0-32,14.3-32,32s14.3,32,32,32h128c17.7,0,32-14.3,32-32V48C496,30.3,481.7,16,464,16z M441.8,289.6
	c-16.9-5.4-34.9,3.8-40.3,20.6C381.1,373.5,322.6,416,256,416c-50.5,0-96.2-24.5-124.4-64H176c17.7,0,32-14.3,32-32s-14.3-32-32-32
	H48c-17.7,0-32,14.3-32,32v144c0,17.7,14.3,32,32,32s32-14.3,32-32v-74.1c39.9,55.6,104.6,90.1,175.1,90.1
	c94.4,0,177.4-60.3,206.4-150.2C467.9,313,458.6,294.1,441.8,289.6z"/>
</svg>
