<?xml version="1.0" encoding="utf-8"?>
<!-- Generator: Adobe Illustrator 25.2.0, SVG Export Plug-In . SVG Version: 6.00 Build 0)  -->
<svg version="1.1" id="Layer_1" xmlns="http://www.w3.org/2000/svg" xmlns:xlink="http://www.w3.org/1999/xlink" x="0px" y="0px"
	 viewBox="0 0 640 512" style="enable-background:new 0 0 640 512;" xml:space="preserve">
<style type="text/css">
	.st0{fill:#FFFFFF;}
</style>
<path class="st0" d="M576,64H64C28.8,64,0,92.8,0,128v256c0,35.2,28.8,64,64,64l128.3,0c25.2,0,48-14.8,58.4-37.7l27.8-61.6
	c7.9-17.5,24-28.6,41.6-28.6s33.8,11.1,41.6,28.6l27.8,61.6c10.4,23,33.2,37.8,58.4,37.8l128.2,0c35.2,0,64-28.8,64-64V128
	C640,92.8,611.2,64,576,64z M160,304c-35.4,0-64-28.6-64-64s28.6-63.1,64-63.1s64,28.6,64,63.1S195.4,304,160,304z M480,304
	c-35.4,0-64-28.6-64-64s28.6-63.1,64-63.1s64,28.6,64,63.1S515.4,304,480,304z"/>
</svg>
